<mxfile host="app.diagrams.net" agent="Mozilla/5.0 (Windows NT 10.0; Win64; x64) AppleWebKit/537.36 (KHTML, like Gecko) Chrome/128.0.0.0 YaBrowser/24.10.0.0 Safari/537.36" version="24.8.4">
  <diagram name="Страница — 1" id="hj7CFw5oaHOUqpzhWUgJ">
    <mxGraphModel dx="1050" dy="1150" grid="1" gridSize="10" guides="1" tooltips="1" connect="1" arrows="1" fold="1" page="1" pageScale="1" pageWidth="827" pageHeight="583" math="0" shadow="0">
      <root>
        <mxCell id="0" />
        <mxCell id="1" parent="0" />
        <mxCell id="tyJL5RVhGpzJcOc0of-g-132" value="" style="rounded=0;whiteSpace=wrap;html=1;" parent="1" vertex="1">
          <mxGeometry x="220" y="-80" width="550" height="80" as="geometry" />
        </mxCell>
        <mxCell id="tyJL5RVhGpzJcOc0of-g-18" style="edgeStyle=orthogonalEdgeStyle;rounded=0;orthogonalLoop=1;jettySize=auto;html=1;exitX=0.5;exitY=1;exitDx=0;exitDy=0;entryX=0.5;entryY=0;entryDx=0;entryDy=0;" parent="1" source="tyJL5RVhGpzJcOc0of-g-1" target="tyJL5RVhGpzJcOc0of-g-17" edge="1">
          <mxGeometry relative="1" as="geometry" />
        </mxCell>
        <mxCell id="tyJL5RVhGpzJcOc0of-g-26" value="Состоит" style="edgeLabel;html=1;align=center;verticalAlign=middle;resizable=0;points=[];" parent="tyJL5RVhGpzJcOc0of-g-18" vertex="1" connectable="0">
          <mxGeometry x="-0.224" y="-2" relative="1" as="geometry">
            <mxPoint as="offset" />
          </mxGeometry>
        </mxCell>
        <mxCell id="tyJL5RVhGpzJcOc0of-g-29" style="edgeStyle=orthogonalEdgeStyle;rounded=0;orthogonalLoop=1;jettySize=auto;html=1;exitX=1;exitY=0.75;exitDx=0;exitDy=0;entryX=1;entryY=0.5;entryDx=0;entryDy=0;" parent="1" source="tyJL5RVhGpzJcOc0of-g-1" target="tyJL5RVhGpzJcOc0of-g-2" edge="1">
          <mxGeometry relative="1" as="geometry">
            <Array as="points">
              <mxPoint x="210" y="85" />
              <mxPoint x="210" y="290" />
            </Array>
          </mxGeometry>
        </mxCell>
        <mxCell id="tyJL5RVhGpzJcOc0of-g-30" value="Отправляет" style="edgeLabel;html=1;align=center;verticalAlign=middle;resizable=0;points=[];" parent="tyJL5RVhGpzJcOc0of-g-29" vertex="1" connectable="0">
          <mxGeometry x="0.0274" y="-3" relative="1" as="geometry">
            <mxPoint y="-11" as="offset" />
          </mxGeometry>
        </mxCell>
        <mxCell id="tyJL5RVhGpzJcOc0of-g-1" value="User" style="rounded=0;whiteSpace=wrap;html=1;" parent="1" vertex="1">
          <mxGeometry x="50" y="40" width="120" height="60" as="geometry" />
        </mxCell>
        <mxCell id="tyJL5RVhGpzJcOc0of-g-6" style="edgeStyle=orthogonalEdgeStyle;rounded=0;orthogonalLoop=1;jettySize=auto;html=1;exitX=0.5;exitY=1;exitDx=0;exitDy=0;entryX=0.5;entryY=0;entryDx=0;entryDy=0;" parent="1" source="tyJL5RVhGpzJcOc0of-g-2" target="tyJL5RVhGpzJcOc0of-g-3" edge="1">
          <mxGeometry relative="1" as="geometry">
            <mxPoint x="109.5" y="248" as="sourcePoint" />
            <mxPoint x="109.5" y="310" as="targetPoint" />
          </mxGeometry>
        </mxCell>
        <mxCell id="tyJL5RVhGpzJcOc0of-g-7" value="Содержит" style="edgeLabel;html=1;align=center;verticalAlign=middle;resizable=0;points=[];" parent="tyJL5RVhGpzJcOc0of-g-6" vertex="1" connectable="0">
          <mxGeometry x="-0.1545" y="1" relative="1" as="geometry">
            <mxPoint as="offset" />
          </mxGeometry>
        </mxCell>
        <mxCell id="tyJL5RVhGpzJcOc0of-g-2" value="Сообщение" style="rounded=0;whiteSpace=wrap;html=1;" parent="1" vertex="1">
          <mxGeometry x="50" y="260" width="120" height="60" as="geometry" />
        </mxCell>
        <mxCell id="tyJL5RVhGpzJcOc0of-g-3" value="Стикер" style="rounded=0;whiteSpace=wrap;html=1;" parent="1" vertex="1">
          <mxGeometry x="50" y="370" width="120" height="60" as="geometry" />
        </mxCell>
        <mxCell id="tyJL5RVhGpzJcOc0of-g-10" value="User" style="rounded=0;whiteSpace=wrap;html=1;" parent="1" vertex="1">
          <mxGeometry x="310" y="40" width="120" height="60" as="geometry" />
        </mxCell>
        <mxCell id="tyJL5RVhGpzJcOc0of-g-11" value="Сообщение" style="rounded=0;whiteSpace=wrap;html=1;" parent="1" vertex="1">
          <mxGeometry x="650" y="40" width="120" height="60" as="geometry" />
        </mxCell>
        <mxCell id="tyJL5RVhGpzJcOc0of-g-12" value="Стикер" style="rounded=0;whiteSpace=wrap;html=1;" parent="1" vertex="1">
          <mxGeometry x="820" y="40" width="120" height="60" as="geometry" />
        </mxCell>
        <mxCell id="tyJL5RVhGpzJcOc0of-g-13" value="&lt;pre style=&quot;line-height: 120%;&quot;&gt;&lt;font face=&quot;Helvetica&quot;&gt;1. Имя&lt;br&gt;&lt;span style=&quot;background-color: initial;&quot;&gt;2. Фамилия&lt;br&gt;&lt;/span&gt;3. Дата рождения&lt;br&gt;&lt;span style=&quot;background-color: initial;&quot;&gt;4. &lt;/span&gt;&lt;/font&gt;&lt;font face=&quot;Helvetica&quot;&gt;Город проживания&lt;/font&gt;&lt;font face=&quot;Helvetica&quot;&gt;&lt;span style=&quot;background-color: initial;&quot;&gt;&lt;br&gt;&lt;/span&gt;&lt;/font&gt;&lt;/pre&gt;&lt;p&gt;&lt;/p&gt;" style="text;html=1;align=left;verticalAlign=middle;whiteSpace=wrap;rounded=0;spacingLeft=1;" parent="1" vertex="1">
          <mxGeometry x="310" y="110" width="120" height="70" as="geometry" />
        </mxCell>
        <mxCell id="tyJL5RVhGpzJcOc0of-g-14" value="1. Чат&lt;div&gt;2.&amp;nbsp;Отправитель&lt;/div&gt;&lt;div&gt;3. Тип содержимого&lt;br&gt;&lt;/div&gt;&lt;div&gt;4. Время отправки&lt;br&gt;&lt;/div&gt;&lt;div&gt;5. Статус&lt;br&gt;&lt;/div&gt;&lt;div&gt;6. Содержимое&lt;/div&gt;" style="text;html=1;align=left;verticalAlign=middle;whiteSpace=wrap;rounded=0;spacingLeft=1;" parent="1" vertex="1">
          <mxGeometry x="650" y="110" width="120" height="90" as="geometry" />
        </mxCell>
        <mxCell id="tyJL5RVhGpzJcOc0of-g-19" style="edgeStyle=orthogonalEdgeStyle;rounded=0;orthogonalLoop=1;jettySize=auto;html=1;exitX=0.5;exitY=1;exitDx=0;exitDy=0;" parent="1" source="tyJL5RVhGpzJcOc0of-g-17" target="tyJL5RVhGpzJcOc0of-g-2" edge="1">
          <mxGeometry relative="1" as="geometry" />
        </mxCell>
        <mxCell id="tyJL5RVhGpzJcOc0of-g-25" value="Содержит" style="edgeLabel;html=1;align=center;verticalAlign=middle;resizable=0;points=[];" parent="tyJL5RVhGpzJcOc0of-g-19" vertex="1" connectable="0">
          <mxGeometry x="-0.184" y="1" relative="1" as="geometry">
            <mxPoint x="-1" as="offset" />
          </mxGeometry>
        </mxCell>
        <mxCell id="tyJL5RVhGpzJcOc0of-g-17" value="Чат" style="rounded=0;whiteSpace=wrap;html=1;" parent="1" vertex="1">
          <mxGeometry x="50" y="150" width="120" height="60" as="geometry" />
        </mxCell>
        <mxCell id="tyJL5RVhGpzJcOc0of-g-20" value="Чат" style="rounded=0;whiteSpace=wrap;html=1;" parent="1" vertex="1">
          <mxGeometry x="480" y="40" width="120" height="60" as="geometry" />
        </mxCell>
        <mxCell id="tyJL5RVhGpzJcOc0of-g-21" value="1. Тип чата&lt;div&gt;2. Название чата&lt;/div&gt;" style="text;html=1;align=left;verticalAlign=middle;whiteSpace=wrap;rounded=0;spacingLeft=1;" parent="1" vertex="1">
          <mxGeometry x="480" y="95" width="120" height="70" as="geometry" />
        </mxCell>
        <mxCell id="tyJL5RVhGpzJcOc0of-g-24" value="&lt;div&gt;1. URL&lt;br&gt;&lt;/div&gt;&lt;div&gt;2. Категория/тэги&lt;/div&gt;" style="text;html=1;align=left;verticalAlign=middle;whiteSpace=wrap;rounded=0;spacingLeft=1;" parent="1" vertex="1">
          <mxGeometry x="820" y="100" width="120" height="60" as="geometry" />
        </mxCell>
        <mxCell id="tyJL5RVhGpzJcOc0of-g-39" value="Атрибут" style="rounded=0;whiteSpace=wrap;html=1;fontStyle=1" parent="1" vertex="1">
          <mxGeometry x="310" y="260" width="210" height="30" as="geometry" />
        </mxCell>
        <mxCell id="tyJL5RVhGpzJcOc0of-g-40" value="Описание" style="rounded=0;whiteSpace=wrap;html=1;fontStyle=1" parent="1" vertex="1">
          <mxGeometry x="520" y="260" width="390" height="30" as="geometry" />
        </mxCell>
        <mxCell id="tyJL5RVhGpzJcOc0of-g-45" value="Имя" style="rounded=0;whiteSpace=wrap;html=1;" parent="1" vertex="1">
          <mxGeometry x="310" y="290" width="210" height="30" as="geometry" />
        </mxCell>
        <mxCell id="tyJL5RVhGpzJcOc0of-g-46" value="" style="rounded=0;whiteSpace=wrap;html=1;" parent="1" vertex="1">
          <mxGeometry x="520" y="290" width="390" height="30" as="geometry" />
        </mxCell>
        <mxCell id="tyJL5RVhGpzJcOc0of-g-48" value="Фамилия" style="rounded=0;whiteSpace=wrap;html=1;" parent="1" vertex="1">
          <mxGeometry x="310" y="320" width="210" height="30" as="geometry" />
        </mxCell>
        <mxCell id="tyJL5RVhGpzJcOc0of-g-49" value="" style="rounded=0;whiteSpace=wrap;html=1;" parent="1" vertex="1">
          <mxGeometry x="520" y="320" width="390" height="30" as="geometry" />
        </mxCell>
        <mxCell id="tyJL5RVhGpzJcOc0of-g-50" value="Дата рождения" style="rounded=0;whiteSpace=wrap;html=1;" parent="1" vertex="1">
          <mxGeometry x="310" y="350" width="210" height="30" as="geometry" />
        </mxCell>
        <mxCell id="tyJL5RVhGpzJcOc0of-g-52" value="Город проживания" style="rounded=0;whiteSpace=wrap;html=1;" parent="1" vertex="1">
          <mxGeometry x="310" y="380" width="210" height="30" as="geometry" />
        </mxCell>
        <mxCell id="tyJL5RVhGpzJcOc0of-g-55" value="В формате дд.мм.гггг" style="rounded=0;whiteSpace=wrap;html=1;" parent="1" vertex="1">
          <mxGeometry x="520" y="350" width="390" height="30" as="geometry" />
        </mxCell>
        <mxCell id="tyJL5RVhGpzJcOc0of-g-56" value="Название города (например, Москва)" style="rounded=0;whiteSpace=wrap;html=1;" parent="1" vertex="1">
          <mxGeometry x="520" y="380" width="390" height="30" as="geometry" />
        </mxCell>
        <mxCell id="tyJL5RVhGpzJcOc0of-g-131" value="&lt;strong style=&quot;box-sizing: border-box; font-weight: var(--base-text-weight-semibold, 600); color: rgb(31, 35, 40); font-family: -apple-system, BlinkMacSystemFont, &amp;quot;Segoe UI&amp;quot;, &amp;quot;Noto Sans&amp;quot;, Helvetica, Arial, sans-serif, &amp;quot;Apple Color Emoji&amp;quot;, &amp;quot;Segoe UI Emoji&amp;quot;; font-size: 16px; font-style: normal; font-variant-ligatures: normal; font-variant-caps: normal; letter-spacing: normal; orphans: 2; text-align: start; text-indent: 0px; text-transform: none; widows: 2; word-spacing: 0px; -webkit-text-stroke-width: 0px; white-space: normal; background-color: rgb(255, 255, 255); text-decoration-thickness: initial; text-decoration-style: initial; text-decoration-color: initial;&quot;&gt;Я, как&lt;/strong&gt;&lt;span style=&quot;color: rgb(31, 35, 40); font-family: -apple-system, BlinkMacSystemFont, &amp;quot;Segoe UI&amp;quot;, &amp;quot;Noto Sans&amp;quot;, Helvetica, Arial, sans-serif, &amp;quot;Apple Color Emoji&amp;quot;, &amp;quot;Segoe UI Emoji&amp;quot;; font-size: 16px; font-style: normal; font-variant-ligatures: normal; font-variant-caps: normal; font-weight: 400; letter-spacing: normal; orphans: 2; text-align: start; text-indent: 0px; text-transform: none; widows: 2; word-spacing: 0px; -webkit-text-stroke-width: 0px; white-space: normal; background-color: rgb(255, 255, 255); text-decoration-thickness: initial; text-decoration-style: initial; text-decoration-color: initial; display: inline !important; float: none;&quot;&gt;&lt;span&gt;&amp;nbsp;&lt;/span&gt;пользователь мобильного приложения ВКонтакте,&lt;span&gt;&amp;nbsp;&lt;/span&gt;&lt;/span&gt;&lt;strong style=&quot;box-sizing: border-box; font-weight: var(--base-text-weight-semibold, 600); color: rgb(31, 35, 40); font-family: -apple-system, BlinkMacSystemFont, &amp;quot;Segoe UI&amp;quot;, &amp;quot;Noto Sans&amp;quot;, Helvetica, Arial, sans-serif, &amp;quot;Apple Color Emoji&amp;quot;, &amp;quot;Segoe UI Emoji&amp;quot;; font-size: 16px; font-style: normal; font-variant-ligatures: normal; font-variant-caps: normal; letter-spacing: normal; orphans: 2; text-align: start; text-indent: 0px; text-transform: none; widows: 2; word-spacing: 0px; -webkit-text-stroke-width: 0px; white-space: normal; background-color: rgb(255, 255, 255); text-decoration-thickness: initial; text-decoration-style: initial; text-decoration-color: initial;&quot;&gt;хочу иметь возможность&lt;/strong&gt;&lt;span style=&quot;color: rgb(31, 35, 40); font-family: -apple-system, BlinkMacSystemFont, &amp;quot;Segoe UI&amp;quot;, &amp;quot;Noto Sans&amp;quot;, Helvetica, Arial, sans-serif, &amp;quot;Apple Color Emoji&amp;quot;, &amp;quot;Segoe UI Emoji&amp;quot;; font-size: 16px; font-style: normal; font-variant-ligatures: normal; font-variant-caps: normal; font-weight: 400; letter-spacing: normal; orphans: 2; text-align: start; text-indent: 0px; text-transform: none; widows: 2; word-spacing: 0px; -webkit-text-stroke-width: 0px; white-space: normal; background-color: rgb(255, 255, 255); text-decoration-thickness: initial; text-decoration-style: initial; text-decoration-color: initial; display: inline !important; float: none;&quot;&gt;&lt;span&gt;&amp;nbsp;&lt;/span&gt;отправлять стикеры,&lt;span&gt;&amp;nbsp;&lt;/span&gt;&lt;/span&gt;&lt;strong style=&quot;box-sizing: border-box; font-weight: var(--base-text-weight-semibold, 600); color: rgb(31, 35, 40); font-family: -apple-system, BlinkMacSystemFont, &amp;quot;Segoe UI&amp;quot;, &amp;quot;Noto Sans&amp;quot;, Helvetica, Arial, sans-serif, &amp;quot;Apple Color Emoji&amp;quot;, &amp;quot;Segoe UI Emoji&amp;quot;; font-size: 16px; font-style: normal; font-variant-ligatures: normal; font-variant-caps: normal; letter-spacing: normal; orphans: 2; text-align: start; text-indent: 0px; text-transform: none; widows: 2; word-spacing: 0px; -webkit-text-stroke-width: 0px; white-space: normal; background-color: rgb(255, 255, 255); text-decoration-thickness: initial; text-decoration-style: initial; text-decoration-color: initial;&quot;&gt;для того чтобы&lt;/strong&gt;&lt;span style=&quot;color: rgb(31, 35, 40); font-family: -apple-system, BlinkMacSystemFont, &amp;quot;Segoe UI&amp;quot;, &amp;quot;Noto Sans&amp;quot;, Helvetica, Arial, sans-serif, &amp;quot;Apple Color Emoji&amp;quot;, &amp;quot;Segoe UI Emoji&amp;quot;; font-size: 16px; font-style: normal; font-variant-ligatures: normal; font-variant-caps: normal; font-weight: 400; letter-spacing: normal; orphans: 2; text-align: start; text-indent: 0px; text-transform: none; widows: 2; word-spacing: 0px; -webkit-text-stroke-width: 0px; white-space: normal; background-color: rgb(255, 255, 255); text-decoration-thickness: initial; text-decoration-style: initial; text-decoration-color: initial; display: inline !important; float: none;&quot;&gt;&lt;span&gt;&amp;nbsp;&lt;/span&gt;быстрее отвечать на сообщения и передавать эмоции.&lt;/span&gt;" style="text;whiteSpace=wrap;html=1;" parent="1" vertex="1">
          <mxGeometry x="228" y="-75" width="560" height="80" as="geometry" />
        </mxCell>
        <mxCell id="tyJL5RVhGpzJcOc0of-g-133" value="&lt;b&gt;&lt;font style=&quot;font-size: 14px;&quot;&gt;Объект User&lt;/font&gt;&lt;/b&gt;" style="text;html=1;align=center;verticalAlign=middle;whiteSpace=wrap;rounded=0;" parent="1" vertex="1">
          <mxGeometry x="310" y="220" width="90" height="30" as="geometry" />
        </mxCell>
        <mxCell id="tyJL5RVhGpzJcOc0of-g-134" value="&lt;b style=&quot;text-align: center;&quot;&gt;&lt;font style=&quot;font-size: 14px;&quot;&gt;Объект Чат&lt;/font&gt;&lt;/b&gt;" style="text;whiteSpace=wrap;html=1;" parent="1" vertex="1">
          <mxGeometry x="310" y="440" width="90" height="30" as="geometry" />
        </mxCell>
        <mxCell id="tyJL5RVhGpzJcOc0of-g-135" value="Атрибут" style="rounded=0;whiteSpace=wrap;html=1;fontStyle=1" parent="1" vertex="1">
          <mxGeometry x="310" y="480" width="210" height="30" as="geometry" />
        </mxCell>
        <mxCell id="tyJL5RVhGpzJcOc0of-g-136" value="Описание" style="rounded=0;whiteSpace=wrap;html=1;fontStyle=1" parent="1" vertex="1">
          <mxGeometry x="520" y="480" width="390" height="30" as="geometry" />
        </mxCell>
        <mxCell id="tyJL5RVhGpzJcOc0of-g-143" value="Атрибут" style="rounded=0;whiteSpace=wrap;html=1;fontStyle=1" parent="1" vertex="1">
          <mxGeometry x="310" y="710" width="210" height="30" as="geometry" />
        </mxCell>
        <mxCell id="tyJL5RVhGpzJcOc0of-g-144" value="Описание" style="rounded=0;whiteSpace=wrap;html=1;fontStyle=1" parent="1" vertex="1">
          <mxGeometry x="520" y="710" width="390" height="30" as="geometry" />
        </mxCell>
        <mxCell id="tyJL5RVhGpzJcOc0of-g-147" value="Чат" style="rounded=0;whiteSpace=wrap;html=1;" parent="1" vertex="1">
          <mxGeometry x="310" y="740" width="210" height="30" as="geometry" />
        </mxCell>
        <mxCell id="tyJL5RVhGpzJcOc0of-g-148" value="Отправитель" style="rounded=0;whiteSpace=wrap;html=1;" parent="1" vertex="1">
          <mxGeometry x="310" y="770" width="210" height="30" as="geometry" />
        </mxCell>
        <mxCell id="tyJL5RVhGpzJcOc0of-g-149" value="Тип содержимого" style="rounded=0;whiteSpace=wrap;html=1;" parent="1" vertex="1">
          <mxGeometry x="310" y="800" width="210" height="30" as="geometry" />
        </mxCell>
        <mxCell id="tyJL5RVhGpzJcOc0of-g-150" value="Время отправки" style="rounded=0;whiteSpace=wrap;html=1;" parent="1" vertex="1">
          <mxGeometry x="310" y="830" width="210" height="30" as="geometry" />
        </mxCell>
        <mxCell id="tyJL5RVhGpzJcOc0of-g-151" value="Статус" style="rounded=0;whiteSpace=wrap;html=1;" parent="1" vertex="1">
          <mxGeometry x="310" y="860" width="210" height="160" as="geometry" />
        </mxCell>
        <mxCell id="tyJL5RVhGpzJcOc0of-g-152" value="User" style="rounded=0;whiteSpace=wrap;html=1;" parent="1" vertex="1">
          <mxGeometry x="520" y="770" width="390" height="30" as="geometry" />
        </mxCell>
        <mxCell id="tyJL5RVhGpzJcOc0of-g-154" value="Текст, стикер" style="rounded=0;whiteSpace=wrap;html=1;" parent="1" vertex="1">
          <mxGeometry x="520" y="800" width="390" height="30" as="geometry" />
        </mxCell>
        <mxCell id="tyJL5RVhGpzJcOc0of-g-155" value="В виде чч:мм дд.мм.гггг" style="rounded=0;whiteSpace=wrap;html=1;" parent="1" vertex="1">
          <mxGeometry x="520" y="830" width="390" height="30" as="geometry" />
        </mxCell>
        <mxCell id="tyJL5RVhGpzJcOc0of-g-156" value="Статус сообщения (отправлено, прочитано)&lt;div&gt;&lt;br&gt;&lt;div&gt;&lt;strong&gt;Отправлено&lt;/strong&gt;:&amp;nbsp;&lt;span style=&quot;background-color: initial;&quot;&gt;Этот статус присваивается сразу после отправки сообщения&lt;/span&gt;&lt;/div&gt;&lt;/div&gt;&lt;div&gt;&lt;span style=&quot;background-color: initial;&quot;&gt;&lt;br&gt;&lt;/span&gt;&lt;/div&gt;&lt;div&gt;&lt;strong&gt;Прочитано&lt;/strong&gt;:&lt;/div&gt;&lt;div&gt;&lt;span style=&quot;background-color: initial;&quot;&gt;&lt;u&gt;Личный чат&lt;/u&gt;&lt;/span&gt;&lt;span style=&quot;background-color: initial;&quot;&gt;&lt;u&gt;:&lt;/u&gt; сообщение переходит в статус &quot;прочитано&quot;, когда получатель открывает чат и видит сообщение&lt;br&gt;&lt;/span&gt;&lt;span style=&quot;background-color: initial;&quot;&gt;&lt;u&gt;Групповой чат&lt;/u&gt;&lt;/span&gt;&lt;span style=&quot;background-color: initial;&quot;&gt;&lt;u&gt;:&lt;/u&gt; сообщение переходит в статус &quot;прочитано&quot;, когда один из участников чата его просмотрел&lt;/span&gt;&lt;/div&gt;" style="rounded=0;whiteSpace=wrap;html=1;align=left;spacingLeft=7;" parent="1" vertex="1">
          <mxGeometry x="520" y="860" width="390" height="160" as="geometry" />
        </mxCell>
        <mxCell id="tyJL5RVhGpzJcOc0of-g-158" value="&lt;b&gt;&lt;font style=&quot;font-size: 14px;&quot;&gt;Объект Сообщение&lt;/font&gt;&lt;/b&gt;" style="text;html=1;align=center;verticalAlign=middle;whiteSpace=wrap;rounded=0;" parent="1" vertex="1">
          <mxGeometry x="310" y="670" width="140" height="30" as="geometry" />
        </mxCell>
        <mxCell id="tyJL5RVhGpzJcOc0of-g-159" value="Атрибут" style="rounded=0;whiteSpace=wrap;html=1;fontStyle=1" parent="1" vertex="1">
          <mxGeometry x="310" y="1150" width="210" height="30" as="geometry" />
        </mxCell>
        <mxCell id="tyJL5RVhGpzJcOc0of-g-160" value="Описание" style="rounded=0;whiteSpace=wrap;html=1;fontStyle=1" parent="1" vertex="1">
          <mxGeometry x="520" y="1150" width="390" height="30" as="geometry" />
        </mxCell>
        <mxCell id="tyJL5RVhGpzJcOc0of-g-163" value="URL" style="rounded=0;whiteSpace=wrap;html=1;" parent="1" vertex="1">
          <mxGeometry x="310" y="1180" width="210" height="30" as="geometry" />
        </mxCell>
        <mxCell id="tyJL5RVhGpzJcOc0of-g-164" value="Категория/тэги" style="rounded=0;whiteSpace=wrap;html=1;" parent="1" vertex="1">
          <mxGeometry x="310" y="1210" width="210" height="50" as="geometry" />
        </mxCell>
        <mxCell id="tyJL5RVhGpzJcOc0of-g-166" value="Путь к изображению стикера" style="rounded=0;whiteSpace=wrap;html=1;" parent="1" vertex="1">
          <mxGeometry x="520" y="1180" width="390" height="30" as="geometry" />
        </mxCell>
        <mxCell id="tyJL5RVhGpzJcOc0of-g-167" value="Данные&amp;nbsp;для удобства поиска и рекомендаций (например, &quot;смешные&quot;, &quot;животные&quot;). У стикера есть только одна категория" style="rounded=0;whiteSpace=wrap;html=1;" parent="1" vertex="1">
          <mxGeometry x="520" y="1210" width="390" height="50" as="geometry" />
        </mxCell>
        <mxCell id="tyJL5RVhGpzJcOc0of-g-169" value="&lt;b&gt;&lt;font style=&quot;font-size: 14px;&quot;&gt;Объект Стикер&lt;/font&gt;&lt;/b&gt;" style="text;html=1;align=center;verticalAlign=middle;whiteSpace=wrap;rounded=0;" parent="1" vertex="1">
          <mxGeometry x="310" y="1110" width="110" height="30" as="geometry" />
        </mxCell>
        <mxCell id="tyJL5RVhGpzJcOc0of-g-171" value="Тип чата" style="rounded=0;whiteSpace=wrap;html=1;" parent="1" vertex="1">
          <mxGeometry x="310" y="510" width="210" height="40" as="geometry" />
        </mxCell>
        <mxCell id="tyJL5RVhGpzJcOc0of-g-172" value="&lt;b&gt;Личный чат:&lt;/b&gt; 1 получатель&lt;div&gt;&lt;b&gt;Групповой чат:&lt;/b&gt; от 2 до 500 получателей включительно&lt;/div&gt;" style="rounded=0;whiteSpace=wrap;html=1;" parent="1" vertex="1">
          <mxGeometry x="520" y="510" width="390" height="40" as="geometry" />
        </mxCell>
        <mxCell id="tyJL5RVhGpzJcOc0of-g-173" value="Название чата" style="rounded=0;whiteSpace=wrap;html=1;" parent="1" vertex="1">
          <mxGeometry x="310" y="550" width="210" height="90" as="geometry" />
        </mxCell>
        <mxCell id="tyJL5RVhGpzJcOc0of-g-174" value="&lt;div&gt;&lt;strong style=&quot;background-color: initial;&quot;&gt;Личный чат&lt;/strong&gt;&lt;span style=&quot;background-color: initial;&quot;&gt;&lt;b&gt;:&amp;nbsp;&lt;/b&gt;&lt;/span&gt;название формируется автоматически в формате &quot;Фамилия Имя&quot; этого получателя&lt;/div&gt;&lt;div&gt;&lt;br&gt;&lt;/div&gt;&lt;div&gt;&lt;b&gt;Групповой чат:&lt;/b&gt;&amp;nbsp;название задается пользователем (название чата должно быть от 1 до 50 символов)&lt;/div&gt;" style="rounded=0;whiteSpace=wrap;html=1;align=left;spacingLeft=7;" parent="1" vertex="1">
          <mxGeometry x="520" y="550" width="390" height="90" as="geometry" />
        </mxCell>
        <mxCell id="tyJL5RVhGpzJcOc0of-g-175" value="Получатель, тот, кто имеет доступ к чату" style="rounded=0;whiteSpace=wrap;html=1;" parent="1" vertex="1">
          <mxGeometry x="520" y="740" width="390" height="30" as="geometry" />
        </mxCell>
        <mxCell id="tyJL5RVhGpzJcOc0of-g-177" value="Содержимое" style="rounded=0;whiteSpace=wrap;html=1;" parent="1" vertex="1">
          <mxGeometry x="310" y="1020" width="210" height="60" as="geometry" />
        </mxCell>
        <mxCell id="tyJL5RVhGpzJcOc0of-g-178" value="Место, где хранятся данные, которые пользователь отправил в сообщении (текст/стикер). Это содержимое, будет отображаться в чате для получателей" style="rounded=0;whiteSpace=wrap;html=1;spacingLeft=1;" parent="1" vertex="1">
          <mxGeometry x="520" y="1020" width="390" height="60" as="geometry" />
        </mxCell>
      </root>
    </mxGraphModel>
  </diagram>
</mxfile>
